<svg xmlns="http://www.w3.org/2000/svg" viewBox="0 0 920 520" role="img" aria-labelledby="title desc"><title id="title">Construction ERP local-first sync workflow</title><desc id="desc">Android and Windows devices save to encrypted local databases and exchange authorized records through Firebase sync.</desc><defs><linearGradient id="g" x1="0" y1="0" x2="1" y2="1"><stop stop-color="#111b26"/><stop offset="1" stop-color="#1e3144"/></linearGradient><filter id="s"><feDropShadow dx="0" dy="14" stdDeviation="16" flood-opacity=".16"/></filter></defs><rect width="920" height="520" rx="36" fill="#f4f1e9"/><g filter="url(#s)"><rect x="52" y="92" width="244" height="338" rx="28" fill="url(#g)"/><rect x="624" y="92" width="244" height="338" rx="28" fill="url(#g)"/><rect x="349" y="153" width="222" height="214" rx="30" fill="#fff" stroke="#dde2e6" stroke-width="3"/></g><rect x="76" y="120" width="196" height="245" rx="15" fill="#fff"/><rect x="648" y="120" width="196" height="245" rx="15" fill="#fff"/><g fill="#111b26"><rect x="94" y="143" width="76" height="10" rx="5"/><rect x="666" y="143" width="76" height="10" rx="5"/></g><g fill="#f6ba18"><rect x="94" y="178" width="160" height="48" rx="11"/><rect x="666" y="178" width="160" height="48" rx="11"/></g><g fill="#e8edf0"><rect x="94" y="242" width="72" height="48" rx="11"/><rect x="182" y="242" width="72" height="48" rx="11"/><rect x="94" y="306" width="160" height="14" rx="7"/><rect x="94" y="332" width="126" height="14" rx="7"/><rect x="666" y="242" width="72" height="48" rx="11"/><rect x="754" y="242" width="72" height="48" rx="11"/><rect x="666" y="306" width="160" height="14" rx="7"/><rect x="666" y="332" width="126" height="14" rx="7"/></g><g font-family="system-ui,sans-serif" text-anchor="middle"><text x="174" y="402" fill="#fff" font-size="18" font-weight="700">ANDROID • SITE</text><text x="746" y="402" fill="#fff" font-size="18" font-weight="700">WINDOWS • OFFICE</text><text x="460" y="207" fill="#101821" font-size="20" font-weight="800">AUTHORIZED SYNC</text><text x="460" y="240" fill="#5e6975" font-size="15">Company + role + project access</text><text x="460" y="290" fill="#0b8f80" font-size="17" font-weight="800">Conflict review</text><text x="460" y="321" fill="#5e6975" font-size="15">Retry • inspect • recover</text></g><path d="M296 226c34-42 56-56 86-59" fill="none" stroke="#0b8f80" stroke-width="8" stroke-linecap="round"/><path d="m370 153 18 12-19 10" fill="none" stroke="#0b8f80" stroke-width="8" stroke-linecap="round" stroke-linejoin="round"/><path d="M624 294c-36 43-58 56-87 59" fill="none" stroke="#f28a38" stroke-width="8" stroke-linecap="round"/><path d="m550 367-18-12 19-10" fill="none" stroke="#f28a38" stroke-width="8" stroke-linecap="round" stroke-linejoin="round"/><g font-family="system-ui,sans-serif" text-anchor="middle"><text x="174" y="80" fill="#101821" font-size="16" font-weight="700">ENCRYPTED LOCAL DATABASE</text><text x="746" y="80" fill="#101821" font-size="16" font-weight="700">ENCRYPTED LOCAL DATABASE</text><text x="460" y="443" fill="#101821" font-size="17" font-weight="800">Work offline. Sync when connected. Keep encrypted backups.</text></g></svg>